<?xml version="1.0" encoding="UTF-8"?>
<svg width="35px" height="35px" viewBox="0 0 35 35" version="1.1" xmlns="http://www.w3.org/2000/svg" xmlns:xlink="http://www.w3.org/1999/xlink">
    <!-- Generator: Sketch 54 (76480) - https://sketchapp.com -->
    <title>Icon/Checklist</title>
    <desc>Created with Sketch.</desc>
    <g id="Icon/Checklist" stroke="none" stroke-width="1" fill="none" fill-rule="evenodd">
        <path d="M16.0312769,5 L11.7908923,11.2064561 L9.45192308,9.62075983 L8.24038462,11.4451655 C9.61362308,12.3731041 10.9857308,13.3027341 12.3629538,14.2244526 L17.8148769,6.24472645 L16.0312769,5 Z M4,5.6309022 L4,17.6345873 L15.8461538,17.6345873 L15.8461538,16.5433442 L15.8461538,15.4521011 L6.15384615,15.4521011 L6.15384615,7.81338843 L11.5384615,7.81338843 L11.5384615,5.6309022 L4,5.6309022 Z M19.0769231,10.5415071 L19.0769231,12.7239933 L32,12.7239933 L32,10.5415071 L19.0769231,10.5415071 Z M4,20.9083167 L4,30.7295047 L15.8461538,30.7295047 L15.8461538,20.9083167 L4,20.9083167 Z M6.15384615,23.0908029 L13.6923077,23.0908029 L13.6923077,28.5470184 L6.15384615,28.5470184 L6.15384615,23.0908029 Z M19.0769231,24.7276676 L19.0769231,26.9101538 L32,26.9101538 L32,24.7276676 L19.0769231,24.7276676 Z" id="Shape" fill="#65B29E" fill-rule="nonzero"></path>
    </g>
</svg>