<?xml version="1.0" encoding="UTF-8"?>
<svg width="90px" height="123px" viewBox="0 0 90 123" version="1.1" xmlns="http://www.w3.org/2000/svg" xmlns:xlink="http://www.w3.org/1999/xlink">
    <!-- Generator: Sketch 53.2 (72643) - https://sketchapp.com -->
    <title>graphic</title>
    <desc>Created with Sketch.</desc>
    <g id="Desktop" stroke="none" stroke-width="1" fill="none" fill-rule="evenodd">
        <g id="Onboarding-Affordability-3-" transform="translate(-188.000000, -279.000000)">
            <g id="header" transform="translate(24.000000, 204.000000)">
                <g id="rule-of-thumb" transform="translate(136.000000, 70.000000)">
                    <g id="graphic">
                        <polygon id="Path-29" fill="#EEE7D6" fill-rule="nonzero" points="77 88.165565 118 95 118 59.4960826 83.0404181 58"></polygon>
                        <g id="Group-23" transform="translate(90.000000, 72.000000)" fill-rule="nonzero" stroke="#D2CFC7">
                            <path d="M0,0 C1.49114086,1.74173972 3.80087879,2.61260958 6.92921379,2.61260958" id="Path-28"></path>
                            <path d="M9.84412468,4.32456514 L20.8220753,5.94479181" id="Path-37"></path>
                        </g>
                        <path d="M85.9997976,73.6772494 C85.9883817,71.2039996 85.9831593,69.1281265 85.8810959,67.3364263 C85.7958161,65.8393596 85.6429262,64.5406894 85.3623213,63.3743785 C84.1217608,58.2180921 80.3849531,55.648825 68.9581753,49.9602432 C64.8870353,47.9335115 62.3140475,40.7287049 61.239212,28.3458234 C61.0397679,26.7819411 59.893185,26 57.7994631,26 C55.7057412,26 54.0533073,29.0636135 52.8421613,35.1908406 C52.8421613,47.4781592 54.0382068,53.9866476 56.4302976,54.7163055 C60.0184339,55.8107925 37.978108,56.3794518 35.4633873,58.3746 C32.9486665,60.3697483 30.2085851,63.9346332 31.8777417,71.618072 C32.1753198,72.9878798 31.5674633,74.2797808 30.0541721,75.4937749 C28.1902352,77.3435384 28.7980917,79.6483788 31.8777417,82.4082962 C33.1759495,83.5717227 33.5820342,86.0697459 33.0959958,89.9023656 L36.8595737,93.708702 L39.1138106,94.0454945 C40.1452938,97.9894754 42.068568,99.5787835 44.8836332,98.813419 C47.6986984,98.0480545 54.8849724,95.5397938 66.4424551,91.2886369 C79.5227667,88.6650504 86.0418809,82.7945879 85.9997976,73.6772494 Z" id="Path-3" stroke="#E5E1D9" fill="#EEE7D6" fill-rule="nonzero" stroke-linejoin="round"></path>
                        <g id="Group-21" transform="translate(53.000000, 42.000000)" fill-rule="nonzero" stroke="#D1CEC6">
                            <path d="M3.91943638,13.8463015 C3.32719997,17.6885732 4.22782256,20.8671197 6.62130415,23.3819409" id="Path-9"></path>
                            <path d="M4.47609567,20.4262895 C3.88539275,30.5399832 6.0480831,37.7997786 10.9641667,42.2056757" id="Path-10"></path>
                            <path d="M6.26476618,41.5230126 C6.64507335,43.1065745 7.62559112,44.4263596 9.20631948,45.4823681" id="Path-11"></path>
                            <path d="M0.495871119,0.2549417 C1.28295293,2.84896964 3.16600313,3.71364562 6.14502172,2.84896964" id="Path-12"></path>
                        </g>
                        <g id="Group-20" transform="translate(31.000000, 67.000000)" fill-rule="nonzero" stroke="#D2CFC7">
                            <path d="M0.802729212,10.2004405 L0.802729212,14.9739817" id="Path-15"></path>
                            <path d="M2.1728915,12.043142 L2.1728915,15.508361" id="Path-16"></path>
                            <path d="M4.20565828,21.8186551 L4.20565828,27.298517" id="Path-17"></path>
                            <path d="M5.76513614,23.2684064 L5.76513614,27.0214315" id="Path-18"></path>
                            <path d="M2.447728,0.588622407 L2.447728,6.66636249" id="Path-13"></path>
                            <path d="M3.53757168,0.552749721 L3.53757168,5.55430923" id="Path-14"></path>
                        </g>
                        <path d="M46,70 C44.8940199,71.4027435 44.7054338,73.0694102 45.4342417,75" id="Path-24" stroke="#979797" fill-rule="nonzero"></path>
                        <path d="M46,70 C44.8940199,71.4027435 44.7054338,73.0694102 45.4342417,75" id="Path" stroke="#D2CFC7" fill-rule="nonzero"></path>
                        <path d="M58,71 C60.1540552,83.592173 65.7287502,87.0650017 74.7240848,81.4184863 C80.3457579,77.8896722 86,76.8423081 86,78.3081229 C86,78.7088661 85.3908349,80.1767685 84.1725048,82.71183 C81.08787,87.1971491 75.236939,90.3556183 66.6197119,92.1872373 C64.6662736,92.6024468 63.0308669,93.2067011 61.7134916,94 L58,71 Z" id="Path-34" fill="#C7BFAC" fill-rule="nonzero" opacity="0.2"></path>
                        <g id="Group-22" transform="translate(33.000000, 5.000000)" fill-rule="nonzero">
                            <path d="M17.3964995,79.4390542 C19.5292141,74.2576689 19.0722157,71.4776192 16.0255043,71.0989053 C17.5443955,70.5340667 18.5491096,69.9649252 19.0396466,69.3914808 C20.5706167,67.6017559 20.9092427,64.9526463 19.9282961,63.2521014 C18.4758928,60.734251 15.9596866,60.1138384 12.3796774,61.3908636 L7.75001657,59.9755794 L0.300521097,2.65394016 L16.0255043,0.314219395 L32.6614564,120.041241 L16.4809888,122.467508 L12.3796774,94.0537958 L21.2349546,91.101725 C21.3848887,89.1415281 21.3848887,87.7695046 21.2349546,86.9856543 C20.8242627,84.8385718 19.755257,83.318145 19.6712065,81.9266269 C19.3976828,77.3982408 16.7187403,81.0856559 17.3964995,79.4390542 Z" id="Path-30" fill="#65B29E"></path>
                            <polygon id="Path-35" fill="#E3E3E3" opacity="0.211551339" points="26.969303 120.90611 32.3772917 120.117682 16.3215688 0.431114958 10.3208083 1.21693059 19.142503 64.6377636"></polygon>
                            <path d="M12.5741545,6.12566429 L16.5347486,6.12566429" id="Path-31" stroke="#333333"></path>
                            <path d="M11.6841675,12.2037636 L17.457785,12.2037636" id="Path-32" stroke="#333333"></path>
                        </g>
                        <path d="M54.610873,29 C55.3303642,35.3960754 56.4473438,38.2145434 57.9618117,37.455404 C59.4762796,36.6962645 59.255795,38.0420952 57.3003579,41.492896 C56.8326506,42.6930069 57.4275867,44.8646366 59.0851662,48.0077851 C60.7427457,51.1509337 60.1478096,57.481672 57.3003579,67 C56.0173616,59.194263 55.1208667,53.1618219 54.610873,48.9026767 C54.2600299,45.9726566 52.8769596,38.8494827 53.0088318,33.81029 C53.048712,32.2863601 53.5827258,30.6829302 54.610873,29 Z" id="Path-38" fill="#C7BFAC" fill-rule="nonzero" opacity="0.196149554"></path>
                        <g id="Group-19" transform="translate(31.000000, 60.000000)" fill-rule="nonzero" stroke="#D7D4CF">
                            <path d="M7.08583334,34.5336324 C15.2038195,31.205668 19.7884295,29.3898885 20.8396635,29.0862938 C21.6803005,28.8435191 22.4643172,30.7684971 22.6288049,33.9077463 C22.6562766,34.4320441 22.5824303,35.1657061 22.407266,36.1087323" id="Path-4"></path>
                            <path d="M1.10665289,23.7503629 C12.0382724,24.8864848 18.1109687,25.2382705 19.3247417,24.8057201 C20.5385147,24.3731697 21.0133958,25.7913149 20.7493849,29.0601558" id="Path-5"></path>
                            <path d="M0.522380909,12.7044524 C5.84388298,15.5628493 10.7766485,16.7089584 15.3206775,16.1427797 C19.8647066,15.5766009 20.9931369,18.4024452 18.7059686,24.6203125" id="Path-6"></path>
                            <path d="M16.9419901,16.0315513 C18.8377243,15.296701 20.0148681,14.6211039 20.4734215,14.00476 C22.285984,11.5684857 21.7966349,8.15943734 20.4734215,6.95311123 C18.6480759,5.28900925 16.2762161,5.03856797 13.3578422,6.20178738 L17.3207189,7.64651082" id="Path-8" stroke-linecap="round" stroke-linejoin="round"></path>
                            <path d="M16.6634652,27.6361249 L16.6634652,30.2629155" id="Path-19"></path>
                            <path d="M17.9243508,26.1478281 L17.9243508,29.7655907" id="Path-20"></path>
                            <path d="M13.6405422,19.0487915 L13.6405422,23.5026483" id="Path-21"></path>
                            <path d="M14.8097633,20.1705308 L14.8097633,22.5897282" id="Path-22"></path>
                            <path d="M14.8850162,10.1786735 L14.8850162,13.9635732" id="Path-23"></path>
                            <path d="M19.5931228,32.5043509 L19.5931228,36.8772954" id="Path-25"></path>
                            <path d="M6.13326966,0.444264653 C7.70857516,0.518322028 8.68435396,2.00294096 9.06060606,4.89812144" id="Path-26"></path>
                            <path d="M6.96969697,3.55769231 C8.17343605,4.69629355 9.29034429,5.3729546 10.3204217,5.58767546 C11.4573735,5.82467441 13.0083391,6.30948116 14.528766,5.96878658" id="Path-27"></path>
                        </g>
                        <path d="M31,67 C35.265453,71.0631467 38.4614895,73.3931249 40.5881095,73.9899346 C46.8936956,75.7595196 52.9216091,73.1383254 51.8825738,74.4117189 C51.1330059,75.3303547 49.9949997,76.0415478 48.932147,76.4648373 C47.7819726,76.9229033 45.3056892,77.0869123 41.5032968,76.9568642 C39.779821,76.6394681 38.1907459,76.2384156 36.7360717,75.7537067 C35.2813975,75.2689977 33.5564488,74.4774275 31.5612255,73.378996 L31,67 Z" id="Path-33" fill="#C7BFAC" fill-rule="nonzero" opacity="0.208984375"></path>
                        <path d="M79.0902191,88.5480405 C81.9871657,87.0703367 83.8768662,85.8061755 84.7593204,84.755557 C86.9588234,82.1369075 87.5554235,78.5284379 87.5554235,77.1700349 C87.5554235,74.9941322 88.0311187,75.8531086 88.9825091,79.7469639 C103.660836,79.8846117 111,80.2609478 111,80.8759723 C111,81.4909968 103.660836,81.657582 88.9825091,81.3757279 C88.23656,85.5546569 86.2846261,87.9454278 83.1267076,88.5480405 C79.968789,89.1506532 78.6232929,89.1506532 79.0902191,88.5480405 Z" id="Path-36" fill="#C7BFAC" fill-rule="nonzero" opacity="0.2"></path>
                        <rect id="Rectangle" x="0" y="0" width="133" height="133"></rect>
                    </g>
                </g>
            </g>
        </g>
    </g>
</svg>