<?xml version="1.0" encoding="UTF-8"?>
<svg width="112px" height="94px" viewBox="0 0 112 94" version="1.1" xmlns="http://www.w3.org/2000/svg" xmlns:xlink="http://www.w3.org/1999/xlink">
    <!-- Generator: Sketch 51.3 (57544) - http://www.bohemiancoding.com/sketch -->
    <title>No Risk - Money Back - Guarantee Badge</title>
    <desc>Created with Sketch.</desc>
    <defs></defs>
    <g id="3/13/19-pricing-modal" stroke="none" stroke-width="1" fill="none" fill-rule="evenodd">
        <g id="Pricing-Modal-w/Badge" transform="translate(-542.000000, -179.000000)">
            <g id="No-Risk---Money-Back---Guarantee-Badge" transform="translate(542.000000, 179.000000)">
                <g id="circles" transform="translate(9.000000, 0.000000)" fill="#2C74A1">
                    <path d="M88.4357608,46.9719712 C88.4357608,24.0797432 69.8600874,5.45540596 47.0276749,5.45540596 C24.195039,5.45540596 5.61936556,24.0797432 5.61936556,46.9719712 C5.61936556,52.7417883 6.80056427,58.2398923 8.93150304,63.2375781 L10.8202592,63.2375781 C8.59124096,58.2692365 7.3494966,52.7635164 7.3494966,46.9719712 C7.3494966,25.0362274 25.1492474,7.19006953 47.0276749,7.19006953 C68.9061024,7.19006953 86.7056298,25.0362274 86.7056298,46.9719712 C86.7056298,52.7635164 85.4638854,58.2692365 83.2348672,63.2375781 L85.1238468,63.2375781 C87.2545621,58.2398923 88.4357608,52.7417883 88.4357608,46.9719712 Z" id="Fill-3"></path>
                    <path d="M64.7836362,84.4728708 L60.2690755,84.4728708 C56.1258317,85.9479173 51.6691357,86.7538728 47.0276749,86.7538728 C42.3859907,86.7538728 37.9292947,85.9479173 33.7860508,84.4728708 L29.2717136,84.4728708 C34.6558081,87.0459701 40.6764139,88.4885364 47.0276749,88.4885364 C53.3787125,88.4885364 59.3993183,87.0459701 64.7836362,84.4728708" id="Fill-4"></path>
                    <path d="M6.10529467,63.2375781 C4.1070648,58.2015882 3.00696599,52.7133402 3.00696599,46.9719712 C3.00696599,22.6353849 22.7544547,2.83616253 47.0276749,2.83616253 C71.3006717,2.83616253 91.0483838,22.6353849 91.0483838,46.9719712 C91.0483838,52.7133402 89.948285,58.2015882 87.9498317,63.2375781 L90.7892216,63.2375781 C92.669488,58.168884 93.6992109,52.6889241 93.6992109,46.9719712 C93.6992109,21.1697465 72.7622571,0.178166931 47.0276749,0.178166931 C21.2928693,0.178166931 0.356138919,21.1697465 0.356138919,46.9719712 C0.356138919,52.6889241 1.3858618,58.168884 3.26590476,63.2375781 L6.10529467,63.2375781" id="Fill-5"></path>
                    <path d="M70.2137544,84.4728708 C63.4759842,88.6758012 55.5304289,91.1077798 47.0276749,91.1077798 C38.5249209,91.1077798 30.5791421,88.6758012 23.841372,84.4728708 L19.1420465,84.4728708 C26.9274128,90.3074243 36.5820981,93.7659994 47.0276749,93.7659994 C57.4730283,93.7659994 67.1277136,90.3074243 74.9130798,84.4728708 L70.2137544,84.4728708" id="Fill-6"></path>
                </g>
                <g id="ribbon" transform="translate(0.000000, 64.424983)">
                    <polyline id="Fill-7" fill="#2C74A1" points="111.976324 18.3132239 0.0788027211 18.3132239 7.5679198 9.43024112 0.0788027211 0.547258354 111.976324 0.547258354 104.487207 9.43024112 111.976324 18.3132239"></polyline>
                    <path d="M99.3202721,9.43024112 C99.3202721,10.312581 98.6066824,11.0280401 97.726648,11.0280401 C96.8463903,11.0280401 96.1328006,10.312581 96.1328006,9.43024112 C96.1328006,8.54767727 96.8463903,7.83244215 97.726648,7.83244215 C98.6066824,7.83244215 99.3202721,8.54767727 99.3202721,9.43024112" id="Fill-8" fill="#FFFFFE"></path>
                    <path d="M12.7348543,9.43024112 C12.7348543,10.312581 13.448444,11.0280401 14.3287018,11.0280401 C15.2087361,11.0280401 15.9223258,10.312581 15.9223258,9.43024112 C15.9223258,8.54767727 15.2087361,7.83244215 14.3287018,7.83244215 C13.448444,7.83244215 12.7348543,8.54767727 12.7348543,9.43024112" id="Fill-9" fill="#FFFFFE"></path>
                    <text id="Guarantee" font-family="Lato-Bold, Lato" font-size="10" font-weight="bold" fill="#FFFFFF">
                        <tspan x="31.6632759" y="11.9690722">Guarantee</tspan>
                    </text>
                </g>
                <text id="No-Risk,-100%-Money-" font-family="Lato-Regular, Lato" font-size="8" font-weight="normal" fill="#333333">
                    <tspan x="30.708" y="48">No-Risk, 100% </tspan>
                    <tspan x="34.312" y="58">Money-Back</tspan>
                </text>
                <path d="M46.0952381,22.0769231 L46.0952381,33.9230769 L66.9047619,33.9230769 L66.9047619,22.0769231 L46.0952381,22.0769231 Z M46.0952381,21 L66.9047619,21 C67.5096451,21 68,21.4821549 68,22.0769231 L68,33.9230769 C68,34.5178451 67.5096451,35 66.9047619,35 L46.0952381,35 C45.4903548,35 45,34.5178451 45,33.9230769 L45,22.0769231 C45,21.4821549 45.4903548,21 46.0952381,21 Z M59.2380952,29.7181818 C59.2380952,30.9627623 58.2396052,31.7447552 57.0822645,31.943007 L57.0822645,32.680944 C57.0822645,32.78007 57.0141857,32.8461538 56.9120673,32.8461538 L56.0837745,32.8461538 C55.9816562,32.8461538 55.9135773,32.78007 55.9135773,32.680944 L55.9135773,31.954021 C55.0058592,31.7998252 54.2342987,31.3041958 53.8031326,30.7975525 C53.7464002,30.7204546 53.7464002,30.6433567 53.814479,30.5662587 L54.4952676,29.8503496 C54.5633466,29.7732517 54.6541184,29.7622377 54.7448902,29.8393356 C55.2895211,30.3019231 55.8228055,30.5882867 56.5149407,30.5882867 C57.1843829,30.5882867 57.7176673,30.2358392 57.7176673,29.6851398 C57.7176673,28.3194056 53.9506367,28.7379371 53.9506367,26.2157342 C53.9506367,25.0482517 54.8243155,24.2882867 55.9135773,24.1010489 L55.9135773,23.3190559 C55.9135773,23.2199301 55.9816562,23.1538462 56.0837745,23.1538462 L56.9120673,23.1538462 C57.0141857,23.1538462 57.0822645,23.2199301 57.0822645,23.3190559 L57.0822645,24.1230769 C57.7743997,24.2552448 58.3644165,24.6076923 58.852315,25.0812937 C58.9317404,25.1583916 58.9317404,25.2244755 58.852315,25.3125875 L58.2282588,26.0505244 C58.1601799,26.1386364 58.0807545,26.1496504 57.9899827,26.0835664 C57.4340054,25.665035 57.0368786,25.4667832 56.4695548,25.4667832 C55.8341521,25.4667832 55.4597183,25.7972028 55.4597183,26.2487762 C55.4597183,27.6034965 59.2380952,27.0417832 59.2380952,29.7181818 Z M63.0714286,24.2307692 C62.7689869,24.2307692 62.5238095,23.9896918 62.5238095,23.6923077 C62.5238095,23.3949236 62.7689869,23.1538462 63.0714286,23.1538462 L65.2619048,23.1538462 C65.5643464,23.1538462 65.8095238,23.3949236 65.8095238,23.6923077 C65.8095238,23.9896918 65.5643464,24.2307692 65.2619048,24.2307692 L63.0714286,24.2307692 Z M47.7380952,32.8461538 C47.4356536,32.8461538 47.1904762,32.6050764 47.1904762,32.3076923 C47.1904762,32.0103082 47.4356536,31.7692308 47.7380952,31.7692308 L49.9285714,31.7692308 C50.2310131,31.7692308 50.4761905,32.0103082 50.4761905,32.3076923 C50.4761905,32.6050764 50.2310131,32.8461538 49.9285714,32.8461538 L47.7380952,32.8461538 Z" id="Shape" fill="#2C74A1" fill-rule="nonzero"></path>
            </g>
        </g>
    </g>
</svg>