<?xml version="1.0" encoding="UTF-8"?>
<svg width="28px" height="26px" viewBox="0 0 28 26" version="1.1" xmlns="http://www.w3.org/2000/svg" xmlns:xlink="http://www.w3.org/1999/xlink">
    <!-- Generator: Sketch 55.2 (78181) - https://sketchapp.com -->
    <title>Artboard</title>
    <desc>Created with Sketch.</desc>
    <g id="Artboard" stroke="none" stroke-width="1" fill="none" fill-rule="evenodd">
        <g id="Group" transform="translate(0.000000, 4.000000)" fill="#65B29E">
            <path d="M14,8 L12.5937503,15.4375001 C12.260417,15.6458342 11.9947927,15.9322899 11.7968727,16.2968752 C11.5989576,16.6614604 11.5,17.0624979 11.5,17.5 C11.5,18.1875035 11.7447903,18.7760393 12.2343758,19.2656252 C12.7239612,19.7552108 13.3124945,20 14,20 C14.6875055,20 15.2760388,19.7552108 15.7656242,19.2656252 C16.2552097,18.7760393 16.5,18.1875035 16.5,17.5 C16.5,17.0624979 16.4010424,16.6614604 16.2031273,16.2968752 C16.0052073,15.9322899 15.739583,15.6458342 15.4062497,15.4375001 L14,8 Z M14,19 C13.5833309,19 13.2291685,18.8541682 12.9374982,18.5624999 C12.6458327,18.270832 12.5,17.9166686 12.5,17.5 C12.5,17.0833314 12.6458327,16.729168 12.9374982,16.4375001 C13.2291685,16.1458318 13.5833309,16 14,16 C14.4166691,16 14.7708315,16.1458318 15.0625018,16.4375001 C15.3541673,16.729168 15.5,17.0833314 15.5,17.5 C15.5,17.9166686 15.3541673,18.270832 15.0625018,18.5624999 C14.7708315,18.8541682 14.4166691,19 14,19 Z" id="Fill-1"></path>
            <path d="M27.2546306,18 C27.4922868,17.3076888 27.6759266,16.5944092 27.8055549,15.8601396 C27.9351883,15.1258696 28,14.3706322 28,13.5944054 C28,11.7272622 27.6327204,9.96504154 26.8981463,8.30768975 C26.1635771,6.65034285 25.1643561,5.2080457 23.9004631,3.98076902 C22.6365701,2.75349235 21.1512415,1.78321981 19.444447,1.06993189 C17.7376474,0.35663908 15.9228502,0 14,0 C12.0771498,0 10.2623526,0.35663908 8.55555304,1.06993189 C6.84875852,1.78321981 5.36342985,2.75349235 4.09953688,3.98076902 C2.83564189,5.2080457 1.8364234,6.65034285 1.10185173,8.30768975 C0.367280255,9.96504154 0,11.7272622 0,13.5944054 C0,14.3706322 0.0648141863,15.1258696 0.19444447,15.8601396 C0.324074703,16.5944092 0.50771473,17.3076888 0.745370433,18 L1.75000013,17.7167828 C1.51234442,17.0664299 1.33410528,16.395108 1.21527768,15.7027968 C1.09645008,15.0104841 1.03703704,14.3076933 1.03703704,13.5944054 C1.03703704,11.85314 1.37191025,10.2167922 2.04166673,8.68531335 C2.73302827,7.15383934 3.66203144,5.82168404 4.82870389,4.68881326 C5.99537634,3.5559376 7.36727704,2.65384764 8.94444319,1.98251898 C10.5216144,1.33216507 12.2067832,1.00699299 14,1.00699299 C15.7932168,1.00699299 17.4783856,1.33216507 19.0555568,1.98251898 C20.632723,2.65384764 22.0046237,3.5559376 23.1712941,4.68881326 C24.3379696,5.82168404 25.2669737,7.15383934 25.9583318,8.68531335 C26.6280892,10.2167922 26.962963,11.85314 26.962963,13.5944054 C26.962963,14.3076933 26.9035514,15.0104841 26.7847233,15.7027968 C26.6658952,16.395108 26.4876556,17.0664299 26.2499994,17.7167828 L27.2546306,18 Z" id="Path"></path>
            <path d="M14,2 C14.1249988,2 14.239583,2.04687515 14.3437479,2.14062545 C14.4479176,2.23437576 14.5,2.35416727 14.5,2.5 L14.5,5.5 C14.5,5.64583273 14.4531248,5.76562424 14.3593745,5.85937455 C14.2656242,5.95312485 14.1458327,6 14,6 C13.8750012,6 13.760417,5.95312485 13.6562521,5.85937455 C13.5520824,5.76562424 13.5,5.64583273 13.5,5.5 L13.5,2.5 C13.5,2.35416727 13.5468752,2.23437576 13.6406255,2.14062545 C13.7343758,2.04687515 13.8541673,2 14,2 Z M20.7557902,4.08695719 C20.8914639,4.15941887 20.9706043,4.2545293 20.9932165,4.37228427 C21.0158288,4.49003503 20.9819078,4.5942016 20.8914639,4.68478397 L18.9581691,6.83152079 C18.86772,6.92210316 18.7490121,6.97644836 18.6020349,6.99456484 C18.4550577,7.01268131 18.3250463,6.98550871 18.2119849,6.91304281 C18.0989287,6.84058113 18.0310919,6.7454707 18.0084796,6.62771994 C17.9858673,6.50996497 18.0084796,6.4057984 18.0763164,6.31522025 L20.0096113,4.19565181 C20.1000551,4.08695719 20.2187683,4.02355164 20.3657402,4.00543516 C20.5127174,3.98731869 20.6427341,4.01449129 20.7557902,4.08695719 Z M24.9741084,9.35064836 C25.0172596,9.48052218 25.0064743,9.61039097 24.9417475,9.74025975 C24.8770207,9.87013357 24.7799381,9.95671108 24.6504845,10 L21.6731376,10.9740258 C21.5436891,11.0173171 21.4142405,11.0064917 21.284792,10.9415599 C21.1553384,10.876623 21.069041,10.7792201 21.0258898,10.6493513 C20.9827386,10.5194775 20.9935289,10.3896137 21.0582557,10.2597399 C21.1229775,10.1298711 21.2200652,10.0432886 21.3495137,10 L24.3268606,9.02597388 C24.4778848,8.9826826 24.612731,8.99350794 24.7313942,9.05844485 C24.8500525,9.12337673 24.9309622,9.22077957 24.9741084,9.35064836 Z M24.9741084,16.6493505 C24.9309622,16.7792213 24.8446598,16.8766227 24.7152113,16.9415582 C24.5857577,17.0064936 24.4563142,17.0173159 24.3268606,16.9740261 L21.3495137,16 C21.2200652,15.9567099 21.1229775,15.875542 21.0582557,15.7564935 C20.9935289,15.6374454 20.9827386,15.5021654 21.0258898,15.3506494 C21.069041,15.2207785 21.1553384,15.1233772 21.284792,15.0584417 C21.4142405,14.9935063 21.5436891,14.982684 21.6731376,15.0259743 L24.6504845,16 C24.7799381,16.0432905 24.8770207,16.1298695 24.9417475,16.2597404 C25.0064743,16.3896113 25.0172596,16.5194796 24.9741084,16.6493505 Z M3.0258902,16.6493505 C2.98274002,16.5194796 2.99352731,16.3896113 3.05825258,16.2597404 C3.12297785,16.1298695 3.22006451,16.0432905 3.34951505,16 L6.32686248,15.0259743 C6.45631101,14.982684 6.58575955,14.9935063 6.71520808,15.0584417 C6.84466164,15.1233772 6.93095899,15.2207785 6.97411017,15.3506494 C7.01726136,15.4805203 7.00647105,15.6103891 6.94174427,15.74026 C6.87702252,15.8701308 6.77993486,15.9567099 6.65048633,16 L3.6731394,16.9740261 C3.52211376,17.0173159 3.38727158,17.0064936 3.26860884,16.9415582 C3.14994559,16.8766227 3.06904038,16.7792213 3.0258902,16.6493505 Z M3.0258902,9.35064836 C3.06904038,9.22077957 3.15533923,9.12337673 3.28478978,9.05844485 C3.41424032,8.99350794 3.54368885,8.9826826 3.6731394,9.02597388 L6.65048633,10 C6.77993486,10.0432886 6.87702252,10.1298711 6.94174427,10.2597399 C7.00647105,10.3896137 7.01726136,10.5194775 6.97411017,10.6493513 C6.93095899,10.7792201 6.84466164,10.876623 6.71520808,10.9415599 C6.58575955,11.0064917 6.45631101,11.0173171 6.32686248,10.9740258 L3.34951505,10 C3.22006451,9.95671108 3.12297785,9.87554372 3.05825258,9.75649524 C2.99352731,9.63744675 2.98274002,9.50216782 3.0258902,9.35064836 Z M7.24420978,4.07027565 C7.35726592,4.01561499 7.48728259,3.99284078 7.63425979,4.00195301 C7.78123172,4.011061 7.89994489,4.07027565 7.99038875,4.17959272 L9.92368355,6.31129886 C9.99152039,6.40239571 10.0141327,6.50715878 9.99152039,6.62558808 C9.96890811,6.74401314 9.90107127,6.83966822 9.78801512,6.91254485 C9.67495372,6.98542573 9.54494231,7.01275393 9.39796511,6.99453371 C9.25098791,6.9763135 9.13228001,6.92165708 9.04183089,6.83055599 L7.10853609,4.67152588 C7.01809222,4.58042479 6.98417117,4.47566172 7.00678345,4.35723666 C7.02939573,4.23880736 7.10853609,4.14315228 7.24420978,4.07027565 Z" id="Combined-Shape"></path>
        </g>
    </g>
</svg>