<?xml version="1.0" encoding="UTF-8"?>
<svg width="90px" height="123px" viewBox="0 0 90 123" version="1.1" xmlns="http://www.w3.org/2000/svg" xmlns:xlink="http://www.w3.org/1999/xlink">
    <!-- Generator: Sketch 53.2 (72643) - https://sketchapp.com -->
    <title>graphic</title>
    <desc>Created with Sketch.</desc>
    <g id="Desktop" stroke="none" stroke-width="1" fill="none" fill-rule="evenodd">
        <g id="Single-Report" transform="translate(-198.000000, -1803.000000)" fill-rule="nonzero">
            <g id="your-affordability" transform="translate(24.000000, 1372.000000)">
                <g id="just-so-you-know" transform="translate(0.000000, 361.000000)">
                    <g id="graphic" transform="translate(175.000000, 70.000000)">
                        <polygon id="Path-29" fill="#EEE7D6" points="48 83.165565 89 90 89 54.4960826 54.0404181 53"></polygon>
                        <g id="Group-23" transform="translate(61.000000, 67.000000)" stroke="#D2CFC7">
                            <path d="M0,0 C1.49114086,1.74173972 3.80087879,2.61260958 6.92921379,2.61260958" id="Path-28"></path>
                            <path d="M9.84412468,4.32456514 L20.8220753,5.94479181" id="Path-37"></path>
                        </g>
                        <path d="M56.9997976,68.6772494 C56.9883817,66.2039996 56.9831593,64.1281265 56.8810959,62.3364263 C56.7958161,60.8393596 56.6429262,59.5406894 56.3623213,58.3743785 C55.1217608,53.2180921 51.3849531,50.648825 39.9581753,44.9602432 C35.8870353,42.9335115 33.3140475,35.7287049 32.239212,23.3458234 C32.0397679,21.7819411 30.893185,21 28.7994631,21 C26.7057412,21 25.0533073,24.0636135 23.8421613,30.1908406 C23.8421613,42.4781592 25.0382068,48.9866476 27.4302976,49.7163055 C31.0184339,50.8107925 8.97810798,51.3794518 6.46338726,53.3746 C3.94866654,55.3697483 1.2085851,58.9346332 2.87774165,66.618072 C3.17531983,67.9878798 2.56746331,69.2797808 1.0541721,70.4937749 C-0.809764847,72.3435384 -0.20190833,74.6483788 2.87774165,77.4082962 C4.17594948,78.5717227 4.5820342,81.0697459 4.09599581,84.9023656 L7.85957366,88.708702 L10.1138106,89.0454945 C11.1452938,92.9894754 13.068568,94.5787835 15.8836332,93.813419 C18.6986984,93.0480545 25.8849724,90.5397938 37.4424551,86.2886369 C50.5227667,83.6650504 57.0418809,77.7945879 56.9997976,68.6772494 Z" id="Path-3" stroke="#E5E1D9" fill="#EEE7D6" stroke-linejoin="round"></path>
                        <g id="Group-21" transform="translate(24.000000, 37.000000)" stroke="#D1CEC6">
                            <path d="M3.91943638,13.8463015 C3.32719997,17.6885732 4.22782256,20.8671197 6.62130415,23.3819409" id="Path-9"></path>
                            <path d="M4.47609567,20.4262895 C3.88539275,30.5399832 6.0480831,37.7997786 10.9641667,42.2056757" id="Path-10"></path>
                            <path d="M6.26476618,41.5230126 C6.64507335,43.1065745 7.62559112,44.4263596 9.20631948,45.4823681" id="Path-11"></path>
                            <path d="M0.495871119,0.2549417 C1.28295293,2.84896964 3.16600313,3.71364562 6.14502172,2.84896964" id="Path-12"></path>
                        </g>
                        <g id="Group-20" transform="translate(2.000000, 62.000000)" stroke="#D2CFC7">
                            <path d="M0.802729212,10.2004405 L0.802729212,14.9739817" id="Path-15"></path>
                            <path d="M2.1728915,12.043142 L2.1728915,15.508361" id="Path-16"></path>
                            <path d="M4.20565828,21.8186551 L4.20565828,27.298517" id="Path-17"></path>
                            <path d="M5.76513614,23.2684064 L5.76513614,27.0214315" id="Path-18"></path>
                            <path d="M2.447728,0.588622407 L2.447728,6.66636249" id="Path-13"></path>
                            <path d="M3.53757168,0.552749721 L3.53757168,5.55430923" id="Path-14"></path>
                        </g>
                        <path d="M17,65 C15.8940199,66.4027435 15.7054338,68.0694102 16.4342417,70" id="Path-24" stroke="#979797"></path>
                        <path d="M17,65 C15.8940199,66.4027435 15.7054338,68.0694102 16.4342417,70" id="Path" stroke="#D2CFC7"></path>
                        <path d="M29,66 C31.1540552,78.592173 36.7287502,82.0650017 45.7240848,76.4184863 C51.3457579,72.8896722 57,71.8423081 57,73.3081229 C57,73.7088661 56.3908349,75.1767685 55.1725048,77.71183 C52.08787,82.1971491 46.236939,85.3556183 37.6197119,87.1872373 C35.6662736,87.6024468 34.0308669,88.2067011 32.7134916,89 L29,66 Z" id="Path-34" fill="#C7BFAC" opacity="0.2"></path>
                        <g id="Group-22" transform="translate(4.000000, 0.000000)">
                            <path d="M17.3964995,79.4390542 C19.5292141,74.2576689 19.0722157,71.4776192 16.0255043,71.0989053 C17.5443955,70.5340667 18.5491096,69.9649252 19.0396466,69.3914808 C20.5706167,67.6017559 20.9092427,64.9526463 19.9282961,63.2521014 C18.4758928,60.734251 15.9596866,60.1138384 12.3796774,61.3908636 L7.75001657,59.9755794 L0.300521097,2.65394016 L16.0255043,0.314219395 L32.6614564,120.041241 L16.4809888,122.467508 L12.3796774,94.0537958 L21.2349546,91.101725 C21.3848887,89.1415281 21.3848887,87.7695046 21.2349546,86.9856543 C20.8242627,84.8385718 19.755257,83.318145 19.6712065,81.9266269 C19.3976828,77.3982408 16.7187403,81.0856559 17.3964995,79.4390542 Z" id="Path-30" fill="#E36E6F"></path>
                            <polygon id="Path-35" fill="#E3E3E3" opacity="0.211551339" points="26.969303 120.90611 32.3772917 120.117682 16.3215688 0.431114958 10.3208083 1.21693059 19.142503 64.6377636"></polygon>
                            <path d="M12.5741545,6.12566429 L16.5347486,6.12566429" id="Path-31" stroke="#333333"></path>
                            <path d="M11.6841675,12.2037636 L17.457785,12.2037636" id="Path-32" stroke="#333333"></path>
                        </g>
                        <path d="M25.610873,24 C26.3303642,30.3960754 27.4473438,33.2145434 28.9618117,32.455404 C30.4762796,31.6962645 30.255795,33.0420952 28.3003579,36.492896 C27.8326506,37.6930069 28.4275867,39.8646366 30.0851662,43.0077851 C31.7427457,46.1509337 31.1478096,52.481672 28.3003579,62 C27.0173616,54.194263 26.1208667,48.1618219 25.610873,43.9026767 C25.2600299,40.9726566 23.8769596,33.8494827 24.0088318,28.81029 C24.048712,27.2863601 24.5827258,25.6829302 25.610873,24 Z" id="Path-38" fill="#C7BFAC" opacity="0.196149554"></path>
                        <g id="Group-19" transform="translate(2.000000, 55.000000)" stroke="#D7D4CF">
                            <path d="M7.08583334,34.5336324 C15.2038195,31.205668 19.7884295,29.3898885 20.8396635,29.0862938 C21.6803005,28.8435191 22.4643172,30.7684971 22.6288049,33.9077463 C22.6562766,34.4320441 22.5824303,35.1657061 22.407266,36.1087323" id="Path-4"></path>
                            <path d="M1.10665289,23.7503629 C12.0382724,24.8864848 18.1109687,25.2382705 19.3247417,24.8057201 C20.5385147,24.3731697 21.0133958,25.7913149 20.7493849,29.0601558" id="Path-5"></path>
                            <path d="M0.522380909,12.7044524 C5.84388298,15.5628493 10.7766485,16.7089584 15.3206775,16.1427797 C19.8647066,15.5766009 20.9931369,18.4024452 18.7059686,24.6203125" id="Path-6"></path>
                            <path d="M16.9419901,16.0315513 C18.8377243,15.296701 20.0148681,14.6211039 20.4734215,14.00476 C22.285984,11.5684857 21.7966349,8.15943734 20.4734215,6.95311123 C18.6480759,5.28900925 16.2762161,5.03856797 13.3578422,6.20178738 L17.3207189,7.64651082" id="Path-8" stroke-linecap="round" stroke-linejoin="round"></path>
                            <path d="M16.6634652,27.6361249 L16.6634652,30.2629155" id="Path-19"></path>
                            <path d="M17.9243508,26.1478281 L17.9243508,29.7655907" id="Path-20"></path>
                            <path d="M13.6405422,19.0487915 L13.6405422,23.5026483" id="Path-21"></path>
                            <path d="M14.8097633,20.1705308 L14.8097633,22.5897282" id="Path-22"></path>
                            <path d="M14.8850162,10.1786735 L14.8850162,13.9635732" id="Path-23"></path>
                            <path d="M19.5931228,32.5043509 L19.5931228,36.8772954" id="Path-25"></path>
                            <path d="M6.13326966,0.444264653 C7.70857516,0.518322028 8.68435396,2.00294096 9.06060606,4.89812144" id="Path-26"></path>
                            <path d="M6.96969697,3.55769231 C8.17343605,4.69629355 9.29034429,5.3729546 10.3204217,5.58767546 C11.4573735,5.82467441 13.0083391,6.30948116 14.528766,5.96878658" id="Path-27"></path>
                        </g>
                        <path d="M2,62 C6.26545304,66.0631467 9.46148954,68.3931249 11.5881095,68.9899346 C17.8936956,70.7595196 23.9216091,68.1383254 22.8825738,69.4117189 C22.1330059,70.3303547 20.9949997,71.0415478 19.932147,71.4648373 C18.7819726,71.9229033 16.3056892,72.0869123 12.5032968,71.9568642 C10.779821,71.6394681 9.19074593,71.2384156 7.73607171,70.7537067 C6.28139748,70.2689977 4.55644876,69.4774275 2.56122554,68.378996 L2,62 Z" id="Path-33" fill="#C7BFAC" opacity="0.208984375"></path>
                        <path d="M50.0902191,83.5480405 C52.9871657,82.0703367 54.8768662,80.8061755 55.7593204,79.755557 C57.9588234,77.1369075 58.5554235,73.5284379 58.5554235,72.1700349 C58.5554235,69.9941322 59.0311187,70.8531086 59.9825091,74.7469639 C74.6608364,74.8846117 82,75.2609478 82,75.8759723 C82,76.4909968 74.6608364,76.657582 59.9825091,76.3757279 C59.23656,80.5546569 57.2846261,82.9454278 54.1267076,83.5480405 C50.968789,84.1506532 49.6232929,84.1506532 50.0902191,83.5480405 Z" id="Path-36" fill="#C7BFAC" opacity="0.2"></path>
                    </g>
                </g>
            </g>
        </g>
    </g>
</svg>